<svg xmlns="http://www.w3.org/2000/svg" width="60" height="60" viewBox="0 0 60 60">
  <g id="icon_menu_04" transform="translate(-271 -1313)">
    <rect id="長方形_163" data-name="長方形 163" width="60" height="60" transform="translate(271 1313)" fill="none"/>
    <g id="icon_menu_04-2" data-name="icon_menu_04" transform="translate(-36.847 20.976)">
      <path id="パス_3516" data-name="パス 3516" d="M169.622,408.936a26.756,26.756,0,0,1-3.065,1.818c3.12,1.781,4.863,3.876,4.863,5.925,0,2.505-2.606,5.08-7.15,7.065-5.034,2.2-11.761,3.409-18.942,3.409s-13.908-1.211-18.942-3.409c-4.544-1.984-7.15-4.559-7.15-7.065s2.606-5.081,7.15-7.065l.035-.015c-.28-.946-.567-1.986-.846-3.1-.137.058-.274.115-.408.174-5.834,2.548-9.047,6.1-9.047,10.01s3.213,7.462,9.047,10.01c5.411,2.363,12.571,3.664,20.161,3.664s14.751-1.3,20.162-3.664c5.834-2.548,9.047-6.1,9.047-10.01C174.536,413.825,172.82,411.159,169.622,408.936Z" transform="translate(192.728 916.176)" fill="#9f8b6d"/>
      <path id="パス_3517" data-name="パス 3517" d="M260.738,178.52c-1.65-1.188-4.046-1.351-7.121-.486-.588.166-1.144.353-1.639.537-.009-.395-.021-.79-.04-1.186,0-4.153-8.8-7.52-19.649-7.52s-19.649,3.367-19.649,7.52c-.717,15.04,6.114,28.877,6.16,28.882,1.656,2.827,6.622,4.472,13.489,4.472s11.833-1.645,13.489-4.472a55,55,0,0,0,2.964-7.524c.181-.077.508-.206.774-.309a28.937,28.937,0,0,0,7.156-3.756,14.633,14.633,0,0,0,6.069-9.74C263.282,181.214,261.951,179.392,260.738,178.52ZM246.416,196a59.2,59.2,0,0,1-3.273,8.761c-.9,1.469-4.59,2.941-10.854,2.941s-9.954-1.472-10.854-2.942A59.174,59.174,0,0,1,218.163,196a57.74,57.74,0,0,1-2.493-18.475l0-.072v-.064c.056-.254.96-1.481,4.224-2.648a42.48,42.48,0,0,1,24.785,0c3.264,1.168,4.168,2.395,4.224,2.648v.064l0,.072A57.736,57.736,0,0,1,246.416,196Zm12.207-11.665c-.75,5.158-5.195,7.869-8.435,9.323a62.467,62.467,0,0,0,1.68-10.537c2.044-1.012,5.43-1.956,6.44-1.229C258.688,182.17,258.806,183.084,258.624,184.34Z" transform="translate(104.981 1128.833)" fill="#9f8b6d"/>
      <path id="パス_3518" data-name="パス 3518" d="M285.17,235.96a1.332,1.332,0,0,0-1.835-.632,8.859,8.859,0,0,1-1.326.553c-.977-1.807-5.509-3.174-10.953-3.174s-9.966,1.364-10.949,3.169a8.809,8.809,0,0,1-1.31-.548,1.332,1.332,0,0,0-1.835.632,1.479,1.479,0,0,0,.6,1.936c2.586,1.385,8.013,2.316,13.505,2.316s10.919-.931,13.5-2.316A1.479,1.479,0,0,0,285.17,235.96Z" transform="translate(67.042 1072.695)" fill="#9f8b6d"/>
    </g>
  </g>
</svg>
