<svg xmlns="http://www.w3.org/2000/svg" width="60" height="60" viewBox="0 0 60 60">
  <g id="icon_menu_05" transform="translate(-335 -1313)">
    <rect id="長方形_164" data-name="長方形 164" width="60" height="60" transform="translate(335 1313)" fill="none"/>
    <path id="icon_menu_05-2" data-name="icon_menu_05" d="M435.963,384.723a11.522,11.522,0,0,0-3.938-4.249,31.81,31.81,0,0,0-10.454-4.3,61.425,61.425,0,0,0-14.236-1.591c-7.875,0-15.011,1.328-20.3,3.539a20.312,20.312,0,0,0-6.431,4.021,9.607,9.607,0,0,0-1.9,2.577,6.747,6.747,0,0,0-.707,2.971v20.312a6.751,6.751,0,0,0,.707,2.97,11.537,11.537,0,0,0,3.939,4.25,31.859,31.859,0,0,0,10.453,4.3,61.428,61.428,0,0,0,14.236,1.59,62.637,62.637,0,0,0,12.728-1.267v-7.84h16.524V386.714A6.907,6.907,0,0,0,435.963,384.723Zm-50.232-1.7a13.515,13.515,0,0,1,2.483-1.418,29.009,29.009,0,0,1,2.848-1.1,31.789,31.789,0,0,1,4.946-1.239,1.39,1.39,0,0,1,.394,2.752,25.7,25.7,0,0,0-3.155.723,28.533,28.533,0,0,0-3.878,1.4,10.749,10.749,0,0,0-1.97,1.114,1.391,1.391,0,0,1-1.668-2.226Zm31.715,34.485a61.2,61.2,0,0,1-10.111.824c-7.556,0-14.4-1.3-19.223-3.324a17.571,17.571,0,0,1-5.547-3.431,6.825,6.825,0,0,1-1.358-1.821,3.938,3.938,0,0,1-.426-1.751v-2.814a15.3,15.3,0,0,0,1.865,1.507A31.838,31.838,0,0,0,393.1,411a61.424,61.424,0,0,0,14.236,1.591,64.09,64.09,0,0,0,10.111-.793Zm0-8.526a61.316,61.316,0,0,1-10.111.823c-7.556,0-14.4-1.3-19.223-3.325a17.594,17.594,0,0,1-5.547-3.429,6.855,6.855,0,0,1-1.358-1.823,3.934,3.934,0,0,1-.426-1.753v-.561a3.4,3.4,0,0,0,.811.1,3.438,3.438,0,0,0,3.439-3.439v-1.214a1.724,1.724,0,1,1,3.448,0v4.277a3.949,3.949,0,1,0,7.9,0v-1.724a1.724,1.724,0,0,1,3.447,0v5.174a4.2,4.2,0,0,0,8.395,0V399.1a1.972,1.972,0,1,1,3.944,0v1.252a3.949,3.949,0,0,0,3.949,3.948,3.887,3.887,0,0,0,1.332-.247Zm16.523.407H420.063v-5.015H433.97Zm0-7.631H420.063v-5.374h0l-13.1-11.243,27.006,1.433Z" transform="translate(-42 945.414)" fill="#9f8b6d"/>
  </g>
</svg>
