<svg xmlns="http://www.w3.org/2000/svg" width="60" height="60" viewBox="0 0 60 60">
  <g id="icon_menu_03" transform="translate(-207 -1313)">
    <rect id="長方形_162" data-name="長方形 162" width="60" height="60" transform="translate(207 1313)" fill="none"/>
    <g id="icon_menu_03-2" data-name="icon_menu_03" transform="translate(207.887 1313.803)">
      <path id="パス_3511" data-name="パス 3511" d="M432.521,438.166c.218-1.85.164-3.158-2.468-5.768l-4.718-4.72a1.471,1.471,0,1,0-2.095,2.063l4.942,4.943a.808.808,0,0,1,0,1.143l-.153.153a.807.807,0,0,1-1.143,0l-4.965-4.966a1.519,1.519,0,0,0-2.148,2.148l4.966,4.965a.809.809,0,0,1,0,1.143l-.153.153a.807.807,0,0,1-1.143,0l-4.943-4.943a1.471,1.471,0,1,0-2.063,2.095l4.719,4.72c2.612,2.63,3.919,2.685,5.769,2.466,1.492-.175,2.581-.509,4.213,1.124l14.374,14.373,2.5-2.505-14.374-14.373C432.011,440.748,432.347,439.659,432.521,438.166Z" transform="translate(-399.081 -401.163)" fill="#9f8b6d"/>
      <path id="パス_3512" data-name="パス 3512" d="M459.872,423.315l-11.057-11.057c-1.82-1.819-4.774.226-3.183,3.184,1.061,1.97,3.183,6.819,5.912,10.229s5.341,2.842,8.07,3.524l1.985.856,10.115,10.114,2.492-2.492.013-.012Z" transform="translate(-415.105 -392.316)" fill="#9f8b6d"/>
      <path id="パス_3513" data-name="パス 3513" d="M417.382,395.233a12.61,12.61,0,0,1,6.369,1.724l1.036-1.779a14.743,14.743,0,0,0-20.16,20.161l1.78-1.036a12.69,12.69,0,0,1,10.974-19.07Z" transform="translate(-391.47 -382.027)" fill="#9f8b6d"/>
      <path id="パス_3514" data-name="パス 3514" d="M403.515,416.143a22.062,22.062,0,1,1,21.522-17.275l2.836,2.838a25.521,25.521,0,1,0-15.243,16.224L409.9,415.2A22.028,22.028,0,0,1,403.515,416.143Z" transform="translate(-378 -368.55)" fill="#9f8b6d"/>
      <path id="パス_3515" data-name="パス 3515" d="M470.393,453.989l-.936-.936-1.461-.63c-.261-.061-.529-.108-.8-.153a22.569,22.569,0,0,1-4.725,4.82l2.566,2.567A26.657,26.657,0,0,0,470.393,453.989Z" transform="translate(-423.656 -413.791)" fill="#9f8b6d"/>
    </g>
  </g>
</svg>
