<svg xmlns="http://www.w3.org/2000/svg" width="60" height="60" viewBox="0 0 60 60">
  <g id="icon_menu_01" transform="translate(-79 -1313)">
    <rect id="長方形_160" data-name="長方形 160" width="60" height="60" transform="translate(79 1313)" fill="none"/>
    <path id="icon_menu_01-2" data-name="icon_menu_01" d="M175.248,187.657l-3.584-13.183H119.61l-3.584,13.183a4.954,4.954,0,0,0,.1,3.128,4.4,4.4,0,0,0,3.707,2.553v28.457h51.6V193.338a4.4,4.4,0,0,0,3.707-2.553A4.954,4.954,0,0,0,175.248,187.657Zm-20.273-10.238,1.192,10.508a2.061,2.061,0,0,1-.483,1.633,1.947,1.947,0,0,1-1.478.637h-.386a2.543,2.543,0,0,1-2.482-2.392l-.6-10.386Zm-19.868,10.508,1.192-10.508h4.233l-.6,10.386a2.543,2.543,0,0,1-2.482,2.392h-.386a1.947,1.947,0,0,1-1.478-.637A2.062,2.062,0,0,1,135.107,187.927Zm-14.494,2.27a1.59,1.59,0,0,1-1.3-.571,1.822,1.822,0,0,1-.239-1.6l2.726-10.606H126L123.935,187.7A3.213,3.213,0,0,1,121,190.2Zm23.315,28.384H134.7V203.222h9.224Zm12.642,0h-9.224V203.222h9.224Zm11.654,0h-8.44V200.008H131.49v18.573h-8.44V192.832a7.092,7.092,0,0,0,1.816-1.164,4.613,4.613,0,0,0,3.7,1.7h.392a6.133,6.133,0,0,0,4.161-1.7,4.924,4.924,0,0,0,3.8,1.7h.392a5.749,5.749,0,0,0,4.055-1.7,5.256,5.256,0,0,0,3.909,1.7H146a5.257,5.257,0,0,0,3.909-1.7,5.748,5.748,0,0,0,4.055,1.7h.392a4.924,4.924,0,0,0,3.8-1.7,6.133,6.133,0,0,0,4.161,1.7h.392a4.613,4.613,0,0,0,3.7-1.7,7.1,7.1,0,0,0,1.816,1.164Zm3.737-28.955a1.59,1.59,0,0,1-1.3.571h-.386a3.213,3.213,0,0,1-2.936-2.492l-2.066-10.285h4.2l2.726,10.606A1.822,1.822,0,0,1,171.961,189.626Z" transform="translate(-36.45 1144.72)" fill="#9f8b6d"/>
  </g>
</svg>
