<svg id="icon_sun" xmlns="http://www.w3.org/2000/svg" width="72.73" height="72.734" viewBox="0 0 72.73 72.734">
  <ellipse id="楕円形_1" data-name="楕円形 1" cx="19.054" cy="19.055" rx="19.054" ry="19.055" transform="translate(16.928 17.702) rotate(-1.163)" fill="#fff"/>
  <rect id="長方形_8" data-name="長方形 8" width="4.332" height="11.915" transform="translate(34.199)" fill="#fff"/>
  <rect id="長方形_9" data-name="長方形 9" width="4.332" height="11.915" transform="translate(34.199 60.819)" fill="#fff"/>
  <rect id="長方形_10" data-name="長方形 10" width="4.333" height="11.915" transform="matrix(0.866, -0.5, 0.5, 0.866, 16.289, 6.09)" fill="#fff"/>
  <rect id="長方形_11" data-name="長方形 11" width="4.332" height="11.914" transform="matrix(0.866, -0.5, 0.5, 0.866, 46.731, 58.492)" fill="#fff"/>
  <rect id="長方形_12" data-name="長方形 12" width="4.332" height="11.915" transform="matrix(0.5, -0.866, 0.866, 0.5, 3.924, 20.042)" fill="#fff"/>
  <rect id="長方形_13" data-name="長方形 13" width="4.332" height="11.915" transform="matrix(0.5, -0.866, 0.866, 0.5, 56.322, 50.486)" fill="#fff"/>
  <rect id="長方形_14" data-name="長方形 14" width="11.915" height="4.333" transform="translate(0 34.201)" fill="#fff"/>
  <rect id="長方形_15" data-name="長方形 15" width="11.915" height="4.333" transform="translate(60.815 34.201)" fill="#fff"/>
  <rect id="長方形_16" data-name="長方形 16" width="11.914" height="4.333" transform="translate(3.923 52.689) rotate(-29.993)" fill="#fff"/>
  <rect id="長方形_17" data-name="長方形 17" width="11.915" height="4.332" transform="matrix(0.866, -0.5, 0.5, 0.866, 56.322, 22.248)" fill="#fff"/>
  <rect id="長方形_18" data-name="長方形 18" width="11.915" height="4.332" transform="matrix(0.5, -0.866, 0.866, 0.5, 16.29, 66.644)" fill="#fff"/>
  <rect id="長方形_19" data-name="長方形 19" width="11.915" height="4.332" transform="translate(46.73 14.241) rotate(-59.984)" fill="#fff"/>
</svg>
