<svg xmlns="http://www.w3.org/2000/svg" width="60" height="60" viewBox="0 0 60 60">
  <g id="icon_menu_02" transform="translate(-143 -1313)">
    <rect id="長方形_161" data-name="長方形 161" width="60" height="60" transform="translate(143 1313)" fill="none"/>
    <path id="icon_menu_02-2" data-name="icon_menu_02" d="M434.485,395.694a29.958,29.958,0,0,0-9.391-5.637,4.069,4.069,0,0,0-.859-.308,1.052,1.052,0,0,0-1.388,1.2s.033-.016.156.783a29.331,29.331,0,0,1,.334,5.193c0,2.041-1.4,2.641-1.635.812-.494-3.507-2.979-9.1-2.979-9.1a1.05,1.05,0,0,0-.833-.712,16.078,16.078,0,0,0-4.39-.824c-3.1-.232-4.825-.161-5.015.121a1.05,1.05,0,0,0-.114.958,31.762,31.762,0,0,1,1.142,3.062,29.2,29.2,0,0,1,1.1,6.158c.187,2.032-1.526,2.478-1.913.93a33.8,33.8,0,0,0-3.08-8.171c-.607-1.124-1.6-2.56-1.6-2.56a1.055,1.055,0,0,0-1.051-.482s-2.7.319-4.349.658c-1.833.376-3.911,1.043-3.911,1.043a1.052,1.052,0,0,0-.6,1.6,33.891,33.891,0,0,1,1.94,2.888,29.171,29.171,0,0,1,2.505,5.792c.646,1.937-.969,2.583-1.292,1.29a30.561,30.561,0,0,0-5.111-7.186c-.875-.929-2.125-2.039-2.125-2.039a1.054,1.054,0,0,0-1.2-.183s-1.374.625-2.314,1.151a25.16,25.16,0,0,0-4.989,3.563c-5.576,5.24-4.647,15.72,3.717,15.72h45.536C439.132,411.413,440.062,400.934,434.485,395.694Z" transform="translate(-235 943.605)" fill="#9f8b6d"/>
  </g>
</svg>
