<svg id="icon_consent" xmlns="http://www.w3.org/2000/svg" width="40.389" height="67.126" viewBox="0 0 40.389 67.126">
  <path id="パス_16" data-name="パス 16" d="M423.739,383.929V369.774A1.773,1.773,0,0,0,421.967,368h-2.836a1.774,1.774,0,0,0-1.773,1.774v14.155H404.523V369.774A1.774,1.774,0,0,0,402.75,368h-2.835a1.774,1.774,0,0,0-1.774,1.774v14.155h-7.4v6.026h40.389v-6.026Z" transform="translate(-390.746 -368)" fill="#fff"/>
  <path id="パス_17" data-name="パス 17" d="M390.746,422.554a17.9,17.9,0,0,0,10.524,16.307v3.894a3.387,3.387,0,0,0,3.386,3.386h12.568a3.386,3.386,0,0,0,3.386-3.386v-3.894a17.9,17.9,0,0,0,10.524-16.307v-7.469H390.746Z" transform="translate(-390.746 -390.393)" fill="#fff"/>
  <rect id="長方形_20" data-name="長方形 20" width="7.68" height="8.867" transform="translate(16.354 58.259)" fill="#fff"/>
</svg>
