<svg id="icon_wifi" xmlns="http://www.w3.org/2000/svg" width="63.133" height="46.988" viewBox="0 0 63.133 46.988">
  <path id="パス_12" data-name="パス 12" d="M440.442,388.957a43.708,43.708,0,0,0-61.751,0,2.36,2.36,0,1,0,3.337,3.338,38.99,38.99,0,0,1,55.076,0,2.36,2.36,0,0,0,3.338-3.338Z" transform="translate(-378 -376.186)" fill="#fff"/>
  <path id="パス_13" data-name="パス 13" d="M395.609,409.419a2.36,2.36,0,0,0,3.337,3.339,27.173,27.173,0,0,1,38.386,0,2.36,2.36,0,0,0,3.337-3.339A31.893,31.893,0,0,0,395.609,409.419Z" transform="translate(-386.573 -388.303)" fill="#fff"/>
  <path id="パス_14" data-name="パス 14" d="M412.528,429.884a2.361,2.361,0,0,0,3.338,3.339,15.36,15.36,0,0,1,21.7,0,2.36,2.36,0,1,0,3.337-3.339A20.079,20.079,0,0,0,412.528,429.884Z" transform="translate(-395.147 -400.422)" fill="#fff"/>
  <path id="パス_15" data-name="パス 15" d="M429.135,455.876l6.346,6.347,6.345-6.345A8.975,8.975,0,0,0,429.135,455.876Z" transform="translate(-403.914 -415.235)" fill="#fff"/>
</svg>
