<svg xmlns="http://www.w3.org/2000/svg" width="60" height="60" viewBox="0 0 60 60">
  <g id="icon_menu_06" transform="translate(-399 -1313)">
    <rect id="長方形_165" data-name="長方形 165" width="60" height="60" transform="translate(399 1313)" fill="none"/>
    <g id="icon_menu_06-2" data-name="icon_menu_06" transform="translate(410.061 1314.605)">
      <path id="パス_3508" data-name="パス 3508" d="M407.742,368a19.285,19.285,0,0,0-19.287,19.287c0,10.872,5.389,13.189,11.345,20.421a35.621,35.621,0,0,1,7.942,17.585,35.618,35.618,0,0,1,7.942-17.585c5.956-7.232,11.345-9.549,11.345-20.421A19.285,19.285,0,0,0,407.742,368Zm0,25.952a6.665,6.665,0,1,1,6.665-6.665A6.666,6.666,0,0,1,407.742,393.952Z" transform="translate(-388.455 -368)" fill="#9f8b6d"/>
    </g>
  </g>
</svg>
