<svg xmlns="http://www.w3.org/2000/svg" width="224.706" height="191.856" viewBox="0 0 224.706 191.856"><g transform="translate(-128 -183.904)"><g transform="translate(128 183.904)"><g transform="translate(0 0)"><g transform="translate(0)"><path d="M72.89,54.625v-2.5H44.785v2.5h6.856V98.983H44.785v2.5H72.89v-2.5H66.023V54.625Z" transform="translate(1.834 -50.469)" fill="#fff"/><path d="M69.182,86.45c12.168,0,17.164-6.971,16.981-17.711-.172-11.419-5.329-16.616-16.981-16.616h-29v2.5h6.241v54.307H40.184v2.5H72.312v-2.5H62.018V86.45ZM63.153,54.626v-.01c6.6.01,7.255,6.606,7.366,13.962.1,6.718-.334,15.37-7.366,15.37H62.018V54.626Z" transform="translate(-40.184 -50.465)" fill="#fff"/><path d="M103.227,96.45c-.537.892-1.378,2.31-3.161,2.2-2.118-.142-2.969-2.644-2.9-5.015.091-2.746,0-6.353-3.263-11.5-3.009-4.772-8.5-7.153-14.012-7.68V74.16c8.389-.932,15.228-3.414,15.228-11.571,0-6.292-5.937-10.466-15.857-10.466H52.314v2.5h6.079V98.983H52.314v2.5H77.289v-2.5H72.781V75.7c5.481.132,7.234,5.35,7.234,8.582,0,4.377-.476,6.951,2.644,11.49,4.053,5.917,11.773,6.961,17.7,5.532,2.148-.517,4.043-1.874,4.63-3.283Zm-30-23.283h-.446V54.626h.385c5.005,0,8.227-.02,8.227,8.359C81.393,71.151,78.779,73.167,73.226,73.167Z" transform="translate(70.587 -50.465)" fill="#fff"/><path d="M72.309,54.626c7.66,0,12.027,4.124,12.2,10.436h2.685V52.123H48.013v2.5h6.332V89.49H48.013V92h39.18V79.064H84.508c-.172,6.3-4.539,10.426-12.2,10.426H68.723V72.407c4.073.517,9.038,2.908,9.038,6.677h2.614V63.015H77.76c0,3.769-4.965,6.16-9.038,6.677V54.626Z" transform="translate(31.31 -50.465)" fill="#fff"/><path d="M88.377,52.848l2.087-.041V67.2H87.871c0-5.005-4.742-12.483-11.328-12.483-4.8,0-8.734,3.293-7.579,8.3C71.538,74.1,94.1,72.373,96.047,91.39c1.064,10.335-4.863,21.348-19.636,21.318-7.072-.02-13.06-4.387-13.06-4.387l-1.641,3.8H59.552V94.541h2.807c0,8.379,8.936,15.857,14.246,15.624,5.968-.233,9.169-3.374,8.541-7.933C83.706,92.09,58.751,90.61,58.66,70.5c-.041-11.773,6.839-18.45,17.853-18.45A20.734,20.734,0,0,1,87.374,55.29Z" transform="translate(128.538 -51.15)" fill="#fff"/><path d="M71.251,59.271c-.618-5.117-4.529-7.447-7.862-7.305-3.648.152-6.707,3.354-6.424,6.677a5.772,5.772,0,0,0,6.221,5.5,5.314,5.314,0,0,0,3.394-1.611,7.423,7.423,0,0,1-4.691,9.321l-.041,2.6C68.667,72.331,72.254,67.5,71.251,59.271Z" transform="translate(112.888 -51.959)" fill="#fff"/></g></g><g transform="translate(17.09 75.782)"><path d="M84.648,90.946c-4.759,5.81-12.514,8.727-20.1,8.625-11.327-.147-22.19-7.529-22.314-20.641-.147-11.541,10.547-19.907,21.817-19.907,6.681-.317,12.694,2.6,18.267,6.749l-4.962,5.1C76.385,69.276,68.992,66,63.6,65.942c-7.178-.056-14.334,4.657-14.447,13.486C49.029,87.476,56.9,92.89,64.177,92.89c5.652.056,11.18-2.611,15.713-6.364Z" transform="translate(-42.234 -59)" fill="#fff"/><path d="M91.756,97.92h-7.2L79.016,86.977H59.867L54.283,97.92H47.15L65.96,59.09h6.466ZM75.354,80.6,69.272,68.224,63.1,80.6Z" transform="translate(8.422 -58.072)" fill="#fff"/><path d="M84.628,65.579H58.877V74.43H74.251V81.2H58.877V97.92H52.332V59.09h32.3Z" transform="translate(61.818 -58.072)" fill="#fff"/><path d="M90.013,97.92H56.282V59.09H88.894v6.489H63.064v8.6H78.314v6.545H63.064V91.171H90.013Z" transform="translate(102.519 -58.072)" fill="#fff"/></g></g><path d="M-74.453-9.289q1.081,0,1.081.881,0,.661-1,1a2.255,2.255,0,0,0-1.722,2.222,2.329,2.329,0,0,0,1,2,3.726,3.726,0,0,0,2.182.6,7.316,7.316,0,0,0,4.625-1.542,3.035,3.035,0,0,0,1.241-2.482,3.749,3.749,0,0,0-.36-1.662,18.322,18.322,0,0,0-1.161-1.922q-1.2-1.8-2.022-3.283A6.561,6.561,0,0,1-71.51-16.7q0-3.744,3.7-7.007a17.523,17.523,0,0,1,4.324-2.763,9.4,9.4,0,0,1,3.784-.861,3.223,3.223,0,0,1,2,.621,2.381,2.381,0,0,1,1,2.022,6.648,6.648,0,0,1-2.162,4.324A17,17,0,0,1-63.622-16.8a5.225,5.225,0,0,1-2.062.681,1.1,1.1,0,0,1-.821-.38.836.836,0,0,1-.24-.581q0-.741,1.321-1.2A13.78,13.78,0,0,0-61.14-20.7q2.4-2,2.4-3.5a1.123,1.123,0,0,0-.48-.941,1.477,1.477,0,0,0-.9-.28,8.063,8.063,0,0,0-3.463,1.061,11.889,11.889,0,0,0-4.4,3.664,6.491,6.491,0,0,0-1.4,3.784,5.962,5.962,0,0,0,.741,2.763q.621,1.141,1.582,2.583.921,1.381,1.562,2.563a5.651,5.651,0,0,1,.741,2.623q0,2.362-2.7,4.184A9.229,9.229,0,0,1-72.671-.681a6.15,6.15,0,0,1-4.484-1.582,3.768,3.768,0,0,1-1.221-2.763,4.006,4.006,0,0,1,1.161-2.923,4.481,4.481,0,0,1,1.662-1.081A3.139,3.139,0,0,1-74.453-9.289Zm13.493,3.884v.36a1.31,1.31,0,0,0,.22.761,1.836,1.836,0,0,0,1.642.741q2.5,0,5.786-3.844.581-.661.981-.661a.516.516,0,0,1,.4.22.511.511,0,0,1,.12.3q0,.781-1.922,2.643a14.466,14.466,0,0,1-3.2,2.382,6.709,6.709,0,0,1-3.163.921,2.9,2.9,0,0,1-2.362-1.041,3.041,3.041,0,0,1-.581-1.962q0-3.383,3.183-6.626,2.583-2.643,4.5-2.643a1.514,1.514,0,0,1,.941.32,1.347,1.347,0,0,1,.521,1.1,5.159,5.159,0,0,1-.981,2.6A10.436,10.436,0,0,1-60.959-5.405Zm.44-1.562a8.046,8.046,0,0,0,2.2-1.081,8.891,8.891,0,0,0,2.222-2.442,1.672,1.672,0,0,0,.3-.861q0-.4-.38-.4a2.81,2.81,0,0,0-1.481.781A10.247,10.247,0,0,0-60.519-6.967Zm14.494-6.586a.7.7,0,0,1,.561.26.746.746,0,0,1,.16.44,2.7,2.7,0,0,1-.581,1.2,36.93,36.93,0,0,0-2.963,5.305,44.627,44.627,0,0,0-1.662,4.4q-.32,1-1,1a.761.761,0,0,1-.641-.32.852.852,0,0,1-.22-.561,21,21,0,0,1,1.281-4,27.759,27.759,0,0,1,3.243-5.926,11.08,11.08,0,0,1,1.081-1.421A1.033,1.033,0,0,1-46.025-13.553Zm3.8-7.427a.805.805,0,0,1,.9.921A2.992,2.992,0,0,1-42.2-18.2a2.279,2.279,0,0,1-1.622.981.78.78,0,0,1-.621-.28.909.909,0,0,1-.24-.641,3.052,3.052,0,0,1,1.061-2.042A2.138,2.138,0,0,1-42.221-20.98Zm2.1,8.909a5,5,0,0,1,3.063-1.441,1.672,1.672,0,0,1,1.381.7,2.229,2.229,0,0,1,.5,1.441A9.417,9.417,0,0,1-36.2-7.587,15.656,15.656,0,0,1-39.5-3a5.041,5.041,0,0,1-3.4,1.762,2.634,2.634,0,0,1-1.091-.22,2.5,2.5,0,0,1-.871-.661q-.16.28-.2.36a5.711,5.711,0,0,1-.47.9.5.5,0,0,1-.41.16.882.882,0,0,1-.681-.42.955.955,0,0,1-.22-.6,36.747,36.747,0,0,1,2.3-5.666,136.525,136.525,0,0,1,7.467-14.174q1.722-2.883,2.1-3.383.42-.6.781-.6a.978.978,0,0,1,.781.44,1.038,1.038,0,0,1,.22.661,2.226,2.226,0,0,1-.38,1.061q-.08.14-1.261,2.062A76.587,76.587,0,0,0-40.119-12.072ZM-44.1-4a2.453,2.453,0,0,0,.611.6,1.182,1.182,0,0,0,.651.2q1.742,0,3.684-3.023a14.27,14.27,0,0,0,1.421-2.7,5.647,5.647,0,0,0,.46-1.782.834.834,0,0,0-.18-.591.74.74,0,0,0-.561-.19,3.587,3.587,0,0,0-2.222,1.261A14.363,14.363,0,0,0-42.8-6.646q-.6,1.121-1.041,2.1Zm15.235-.621A21.063,21.063,0,0,1-30.39-2.7a3.224,3.224,0,0,1-2.3,1.281A1.7,1.7,0,0,1-34.213-2.3a2.78,2.78,0,0,1-.38-1.481,11.185,11.185,0,0,1,2.2-5.926,10.489,10.489,0,0,1,2.022-2.382,2.244,2.244,0,0,1,1.281-.661.727.727,0,0,1,.521.24.661.661,0,0,1,.2.44,2.535,2.535,0,0,1-.741,1.241,20.55,20.55,0,0,0-2.522,3.644,7.323,7.323,0,0,0-1,3.043.638.638,0,0,0,.13.43.464.464,0,0,0,.37.15q1.021,0,2.843-2.923A18.7,18.7,0,0,0-27.667-9.85a6.856,6.856,0,0,1,.941-1.782,1.51,1.51,0,0,1,1.1-.7.722.722,0,0,1,.541.26.892.892,0,0,1,.26.621,10.016,10.016,0,0,1-1.381,3.243,6.471,6.471,0,0,0-.941,2.9,3.436,3.436,0,0,0,.661,2.122,4.342,4.342,0,0,0,1.1.761.9.9,0,0,1,.44.841.786.786,0,0,1-.31.621,1.13,1.13,0,0,1-.751.26,2.555,2.555,0,0,1-1.822-.8,3.525,3.525,0,0,1-.941-2.082Q-28.808-3.764-28.868-4.625ZM-9.349-9.289q1.081,0,1.081.881,0,.661-1,1a2.255,2.255,0,0,0-1.722,2.222,2.329,2.329,0,0,0,1,2,3.726,3.726,0,0,0,2.182.6A7.316,7.316,0,0,0-3.183-4.124,3.035,3.035,0,0,0-1.942-6.606,3.749,3.749,0,0,0-2.3-8.268,18.323,18.323,0,0,0-3.463-10.19q-1.2-1.8-2.022-3.283A6.561,6.561,0,0,1-6.406-16.7q0-3.744,3.7-7.007a17.523,17.523,0,0,1,4.324-2.763,9.4,9.4,0,0,1,3.784-.861,3.223,3.223,0,0,1,2,.621,2.381,2.381,0,0,1,1,2.022A6.648,6.648,0,0,1,6.246-20.36,17,17,0,0,1,1.481-16.8a5.225,5.225,0,0,1-2.062.681A1.1,1.1,0,0,1-1.4-16.5a.836.836,0,0,1-.24-.581q0-.741,1.321-1.2A13.78,13.78,0,0,0,3.964-20.7q2.4-2,2.4-3.5a1.123,1.123,0,0,0-.48-.941,1.477,1.477,0,0,0-.9-.28,8.063,8.063,0,0,0-3.463,1.061,11.889,11.889,0,0,0-4.4,3.664,6.491,6.491,0,0,0-1.4,3.784,5.962,5.962,0,0,0,.741,2.763q.621,1.141,1.582,2.583Q-1.041-10.19-.4-9.009A5.651,5.651,0,0,1,.34-6.386q0,2.362-2.7,4.184A9.229,9.229,0,0,1-7.567-.681a6.15,6.15,0,0,1-4.484-1.582,3.768,3.768,0,0,1-1.221-2.763,4.006,4.006,0,0,1,1.161-2.923A4.481,4.481,0,0,1-10.45-9.029,3.139,3.139,0,0,1-9.349-9.289Zm16.8-.46a20.484,20.484,0,0,1,2.963-2.583,6.073,6.073,0,0,1,2.723-1.321,1,1,0,0,1,.661.28.967.967,0,0,1,.36.741,3.474,3.474,0,0,1-.861,1.682,24.027,24.027,0,0,0-2.522,4,6.3,6.3,0,0,0-.761,2.122q0,.541.521.541,1.081,0,3.644-3.844.521-.781.941-.781t.42.48a7.332,7.332,0,0,1-1.521,2.983A11.6,11.6,0,0,1,11.251-2.5a3.36,3.36,0,0,1-1.842.7,1.294,1.294,0,0,1-1.241-.741,2.173,2.173,0,0,1-.24-1.021A8.62,8.62,0,0,1,9.189-7.627q.3-.541,1.8-3.083Q6.907-8.648,4.084-1.8q-.26.781-.8.781a.806.806,0,0,1-.621-.26,1.01,1.01,0,0,1-.24-.681A16.224,16.224,0,0,1,3.7-5.706Q6.086-11.431,8.148-15.4q2.062-4,4.584-8.308a8.357,8.357,0,0,1,.941-1.4.991.991,0,0,1,.721-.36.747.747,0,0,1,.621.38,1.074,1.074,0,0,1,.2.641,2.985,2.985,0,0,1-.641,1.5Q12.412-19.6,10.27-15.6A47.065,47.065,0,0,0,7.447-9.75Zm13.193-3.8a.7.7,0,0,1,.561.26.746.746,0,0,1,.16.44,2.7,2.7,0,0,1-.581,1.2,36.93,36.93,0,0,0-2.963,5.305,44.626,44.626,0,0,0-1.662,4.4q-.32,1-1,1a.761.761,0,0,1-.641-.32.852.852,0,0,1-.22-.561,21,21,0,0,1,1.281-4,27.759,27.759,0,0,1,3.243-5.926A11.08,11.08,0,0,1,19.9-13.173,1.033,1.033,0,0,1,20.64-13.553Zm3.8-7.427a.805.805,0,0,1,.9.921,2.992,2.992,0,0,1-.881,1.862,2.279,2.279,0,0,1-1.622.981.78.78,0,0,1-.621-.28.909.909,0,0,1-.24-.641,3.052,3.052,0,0,1,1.061-2.042A2.138,2.138,0,0,1,24.444-20.98ZM24.5-8.428q.26-.24.5-.48,4.184-4.084,5.605-4.084.781,0,.781.861a2.373,2.373,0,0,1-.7,1.421q-3.824,4.464-3.824,7.868a4.025,4.025,0,0,0,.6,2.1,1.555,1.555,0,0,1,.28.721.63.63,0,0,1-.24.46.818.818,0,0,1-.621.28A1.619,1.619,0,0,1,25.5-.32,4.872,4.872,0,0,1,24.964-2.7a11.578,11.578,0,0,1,2.042-5.986,15.991,15.991,0,0,0-5.065,6.166q-.6,1.061-1.281,1.061A.727.727,0,0,1,20.1-1.7a.976.976,0,0,1-.28-.721q0-1.081,2.462-5.666,1.321-2.482,2.082-3.6.761-1.1,1.3-1.1a.709.709,0,0,1,.5.24.882.882,0,0,1,.28.641,2.55,2.55,0,0,1-.581,1.261A21.4,21.4,0,0,0,24.5-8.428ZM31.15-1.381l.4-.841L32.772-4.8q2.5-5.385,3.263-6.747,1.181-2.1,2.122-2.1a.814.814,0,0,1,.561.24.759.759,0,0,1,.24.5,6.981,6.981,0,0,1-1.2,2.082,41.306,41.306,0,0,0-2.222,3.984Q34.354-4.464,33.813-3.1a16.716,16.716,0,0,0,2.5-2,15.879,15.879,0,0,0,2.222-2.823q.5-.761.9-.761a.493.493,0,0,1,.38.18.644.644,0,0,1,.18.44,3.656,3.656,0,0,1-.841,1.862A19.342,19.342,0,0,1,32.672-.7a27.474,27.474,0,0,0-1.341,2.763,30.249,30.249,0,0,1-3.323,5.946,7.914,7.914,0,0,1-2.262,2,3.569,3.569,0,0,1-1.842.521,2.389,2.389,0,0,1-1.882-.881,2.049,2.049,0,0,1-.48-1.381,7.461,7.461,0,0,1,2.142-4.625A18.523,18.523,0,0,1,31.15-1.381ZM30.029.741a12.61,12.61,0,0,0-4.044,2.8q-2.522,2.382-2.522,4.164a.883.883,0,0,0,.2.631.764.764,0,0,0,.581.21,2.642,2.642,0,0,0,1.782-.941Q27.587,6.086,30.029.741ZM41.8-20.88a.805.805,0,0,1,.9.921,2.992,2.992,0,0,1-.881,1.862,2.279,2.279,0,0,1-1.622.981.84.84,0,0,1-.641-.28.987.987,0,0,1-.22-.661A3.04,3.04,0,0,1,40.4-20.08,2.138,2.138,0,0,1,41.8-20.88ZM46.045-4.625A21.063,21.063,0,0,1,44.523-2.7a3.224,3.224,0,0,1-2.3,1.281A1.7,1.7,0,0,1,40.7-2.3a2.78,2.78,0,0,1-.38-1.481,11.185,11.185,0,0,1,2.2-5.926,10.489,10.489,0,0,1,2.022-2.382,2.244,2.244,0,0,1,1.281-.661.727.727,0,0,1,.521.24.661.661,0,0,1,.2.44,2.535,2.535,0,0,1-.741,1.241,20.55,20.55,0,0,0-2.522,3.644,7.323,7.323,0,0,0-1,3.043.638.638,0,0,0,.13.43.464.464,0,0,0,.37.15q1.021,0,2.843-2.923A18.7,18.7,0,0,0,47.246-9.85a6.856,6.856,0,0,1,.941-1.782,1.51,1.51,0,0,1,1.1-.7.722.722,0,0,1,.541.26.892.892,0,0,1,.26.621,10.016,10.016,0,0,1-1.381,3.243,6.471,6.471,0,0,0-.941,2.9,3.436,3.436,0,0,0,.661,2.122,4.342,4.342,0,0,0,1.1.761.9.9,0,0,1,.44.841.786.786,0,0,1-.31.621,1.13,1.13,0,0,1-.751.26,2.555,2.555,0,0,1-1.822-.8,3.525,3.525,0,0,1-.941-2.082Q46.1-3.764,46.045-4.625ZM59.318-10.13a14.561,14.561,0,0,0-1.3,4.9,2.635,2.635,0,0,0,.32,1.361,1.2,1.2,0,0,0,1.061.681q1.361,0,3.143-1.822a15.013,15.013,0,0,0,1.982-2.362q.521-.8.981-.8a.407.407,0,0,1,.46.46q0,.761-1.842,3.123-2.723,3.5-5.285,3.5a2.225,2.225,0,0,1-2.182-1.5,5.744,5.744,0,0,1-.48-2.322,14.232,14.232,0,0,1,.48-3.023,25.817,25.817,0,0,0-3.944,5.285Q52.011-1.5,51.43-1.5a.663.663,0,0,1-.521-.26.907.907,0,0,1-.22-.561q0-.8,2.1-5.345a69.645,69.645,0,0,1,7.928-13.373,22.867,22.867,0,0,1,4.1-4.324,4.939,4.939,0,0,1,2.623-1.241,1.047,1.047,0,0,1,.781.36,1.47,1.47,0,0,1,.44,1.081A8.57,8.57,0,0,1,66.885-20.8a37.7,37.7,0,0,1-6.326,6.626,36.592,36.592,0,0,1-4.5,3.4q-.26.521-1.461,3.043a28.012,28.012,0,0,1,3.964-3.724A16.042,16.042,0,0,1,61.1-12.792a4.684,4.684,0,0,1,1.562-.46.633.633,0,0,1,.46.2.589.589,0,0,1,.22.48q0,.661-.9.921A11.988,11.988,0,0,0,59.318-10.13ZM57.6-13.573a29.042,29.042,0,0,0,6.126-5.505A19.985,19.985,0,0,0,66-22.282a3.9,3.9,0,0,0,.6-1.542q0-.46-.42-.46-1.121,0-3.864,3.443A55.59,55.59,0,0,0,57.6-13.573ZM71.27-4.625A21.062,21.062,0,0,1,69.748-2.7a3.224,3.224,0,0,1-2.3,1.281A1.7,1.7,0,0,1,65.924-2.3a2.78,2.78,0,0,1-.38-1.481,11.185,11.185,0,0,1,2.2-5.926,10.489,10.489,0,0,1,2.022-2.382,2.244,2.244,0,0,1,1.281-.661.727.727,0,0,1,.521.24.661.661,0,0,1,.2.44,2.535,2.535,0,0,1-.741,1.241,20.55,20.55,0,0,0-2.522,3.644,7.323,7.323,0,0,0-1,3.043.638.638,0,0,0,.13.43.464.464,0,0,0,.37.15q1.021,0,2.843-2.923A18.7,18.7,0,0,0,72.471-9.85a6.856,6.856,0,0,1,.941-1.782,1.51,1.51,0,0,1,1.1-.7.722.722,0,0,1,.541.26.892.892,0,0,1,.26.621,10.016,10.016,0,0,1-1.381,3.243,6.471,6.471,0,0,0-.941,2.9,3.436,3.436,0,0,0,.661,2.122,4.342,4.342,0,0,0,1.1.761.9.9,0,0,1,.44.841.786.786,0,0,1-.31.621,1.13,1.13,0,0,1-.751.26,2.555,2.555,0,0,1-1.822-.8,3.525,3.525,0,0,1-.941-2.082Q71.33-3.764,71.27-4.625Z" transform="translate(240.007 350.468) rotate(-11)" fill="#fff"/></g></svg>