<svg id="グループ_312" data-name="グループ 312" xmlns="http://www.w3.org/2000/svg" width="546.525" height="76.219" viewBox="0 0 546.525 76.219">
  <g id="グループ_240" data-name="グループ 240" transform="translate(0 0)">
    <g id="グループ_2" data-name="グループ 2" transform="translate(0)">
      <path id="パス_5" data-name="パス 5" d="M79.584,55.221v-3.1h-34.8v3.1h8.489v54.922H44.785v3.1h34.8v-3.1h-8.5V55.221Z" transform="translate(12.937 -50.075)" fill="#fff"/>
      <path id="パス_6" data-name="パス 6" d="M76.088,94.626c15.067,0,21.251-8.631,21.025-21.929-.213-14.138-6.6-20.574-21.025-20.574h-35.9v3.1h7.728v67.241H40.184v3.1h39.78v-3.1H67.219V94.626Zm-7.464-39.4v-.013c8.167.013,8.982,8.179,9.12,17.287.125,8.317-.414,19.031-9.12,19.031h-1.4V55.222Z" transform="translate(-40.184 -50.071)" fill="#fff"/>
      <path id="パス_7" data-name="パス 7" d="M115.353,107.008c-.665,1.1-1.706,2.86-3.914,2.722-2.622-.176-3.676-3.274-3.588-6.21.113-3.4,0-7.866-4.04-14.239-3.726-5.909-10.525-8.857-17.35-9.509v-.364c10.387-1.154,18.855-4.228,18.855-14.326,0-7.79-7.351-12.959-19.633-12.959H52.314v3.1h7.527v54.922H52.314v3.1H83.237v-3.1H77.655V81.315c6.787.163,8.957,6.624,8.957,10.626,0,5.419-.59,8.606,3.274,14.226,5.018,7.326,14.577,8.618,21.916,6.85,2.66-.64,5.005-2.321,5.733-4.065ZM78.207,78.179h-.552V55.222h.477c6.2,0,10.187-.025,10.187,10.35C88.318,75.683,85.082,78.179,78.207,78.179Z" transform="translate(99.857 -50.071)" fill="#fff"/>
      <path id="パス_8" data-name="パス 8" d="M78.1,55.222c9.484,0,14.891,5.106,15.1,12.921h3.324V52.123H48.013v3.1h7.841V98.389H48.013V101.5H96.525V85.48H93.2c-.213,7.8-5.62,12.909-15.1,12.909H73.655V77.238c5.043.64,11.19,3.6,11.19,8.267h3.237v-19.9H84.845c0,4.667-6.147,7.627-11.19,8.267V55.222Z" transform="translate(50.202 -50.071)" fill="#fff"/>
      <path id="パス_9" data-name="パス 9" d="M95.455,53.039l2.584-.05V70.8H94.827c0-6.2-5.871-15.455-14.025-15.455-5.946,0-10.814,4.077-9.384,10.274,3.186,13.724,31.124,11.592,33.533,35.139,1.317,12.8-6.022,26.432-24.312,26.395-8.756-.025-16.171-5.432-16.171-5.432l-2.032,4.7H59.764V104.662h3.475c0,10.375,11.065,19.633,17.638,19.344,7.389-.288,11.353-4.177,10.575-9.823-1.781-12.558-32.68-14.389-32.793-39.291-.05-14.577,8.468-22.844,22.1-22.844a25.672,25.672,0,0,1,13.448,4.014Z" transform="translate(173.122 -50.936)" fill="#fff"/>
      <path id="パス_10" data-name="パス 10" d="M74.657,61.012c-.765-6.335-5.608-9.221-9.735-9.045-4.516.188-8.3,4.152-7.954,8.267a7.147,7.147,0,0,0,7.7,6.812,6.58,6.58,0,0,0,4.2-1.995c.866,2.622.9,9.133-5.808,11.541l-.05,3.224C71.458,77.182,75.9,71.2,74.657,61.012Z" transform="translate(153.336 -51.959)" fill="#fff"/>
    </g>
  </g>
  <g id="グループ_241" data-name="グループ 241" transform="translate(304.202 6.698)">
    <path id="パス_1" data-name="パス 1" d="M104.869,106.176c-7.028,8.58-18.479,12.887-29.681,12.737C58.462,118.7,42.42,107.8,42.236,88.432c-.217-17.044,15.575-29.4,32.218-29.4C84.32,58.567,93.2,62.874,101.43,69L94.1,76.529c-1.436-2.354-12.353-7.195-20.316-7.278-10.6-.083-21.167,6.878-21.334,19.915-.184,11.886,11.435,19.882,22.185,19.882,8.347.083,16.51-3.856,23.2-9.4Z" transform="translate(-42.234 -59)" fill="#fff"/>
    <path id="パス_2" data-name="パス 2" d="M113.022,116.432H102.388l-8.18-16.159H65.93l-8.247,16.159H47.15L74.928,59.09h9.549ZM88.8,90.857,79.819,72.578,70.7,90.857Z" transform="translate(20.917 -57.586)" fill="#fff"/>
    <path id="パス_3" data-name="パス 3" d="M100.025,68.672H62V81.743H84.7v10H62v24.689H52.332V59.09h47.693Z" transform="translate(87.239 -57.586)" fill="#fff"/>
    <path id="パス_4" data-name="パス 4" d="M106.095,116.432H56.282V59.09h48.16v9.582H66.3v12.7H88.817v9.665H66.3v15.425h39.8Z" transform="translate(136.228 -57.586)" fill="#fff"/>
  </g>
</svg>
