<svg xmlns="http://www.w3.org/2000/svg" width="122.542" height="50.703" viewBox="0 0 122.542 50.703"><g transform="translate(-147.789 -1053.369)"><path d="M-39.2-36.631a3.25,3.25,0,0,1,2.766,1.289,3.953,3.953,0,0,1,.779,2.471A13.084,13.084,0,0,1-37.4-26.936,21.633,21.633,0,0,1-41.21-21.78q-1.5,1.477-2.363,1.477a1.382,1.382,0,0,1-1.047-.564,1.356,1.356,0,0,1-.349-.913q0-.94,1.638-2.148a15.509,15.509,0,0,0,3.679-3.76,9.491,9.491,0,0,0,2.014-5A1.8,1.8,0,0,0-38-33.918a1.389,1.389,0,0,0-1.088-.4q-1.477,0-4.189,2.148a43.6,43.6,0,0,0-6.526,6.58,45.656,45.656,0,0,0-6.66,10.42A23.17,23.17,0,0,0-58.827-6.1,4.637,4.637,0,0,0-57.78-3.035a3.51,3.51,0,0,0,2.82,1.423q2.9,0,7.3-4.512a38.266,38.266,0,0,0,3.2-3.975,19.438,19.438,0,0,0,1.584-2.363q.4-.779.94-.779.591,0,.591.564,0,1.208-3.008,5.425A25.255,25.255,0,0,1-49.857-1.5a10.942,10.942,0,0,1-6.392,2.5,5.4,5.4,0,0,1-4.861-2.82,7.712,7.712,0,0,1-1.1-4.109q0-5.8,5.479-14.636a54.417,54.417,0,0,1,9.856-12.112Q-42.391-36.631-39.2-36.631Zm6.687,30.1a20.312,20.312,0,0,1-1.746,2.632Q-35.946-1.8-37.611-1.8a2.5,2.5,0,0,1-2.256-1.37,4.127,4.127,0,0,1-.51-2.095,14.408,14.408,0,0,1,1.88-6.58,17.382,17.382,0,0,1,5.049-6.15,6.421,6.421,0,0,1,3.733-1.4,2.656,2.656,0,0,1,1.88.7,1.891,1.891,0,0,1,.645,1.4,4.476,4.476,0,0,1-.457,1.638,1.793,1.793,0,0,1,.4.994A4.505,4.505,0,0,1-28-12.81a20.694,20.694,0,0,0-1.558,3.491,11.629,11.629,0,0,0-.833,3.706,2.62,2.62,0,0,0,.671,1.853,5.068,5.068,0,0,0,1.1.618,1.148,1.148,0,0,1,.671,1.128,1.046,1.046,0,0,1-.376.833,1.391,1.391,0,0,1-.94.349,3.131,3.131,0,0,1-2.5-1.289,4.012,4.012,0,0,1-.859-2.632Q-32.616-5.291-32.509-6.526Zm3.357-8.835a2.667,2.667,0,0,0-.7-.873,1.318,1.318,0,0,0-.806-.282q-2.041,0-4.431,3.572Q-37.719-9-37.719-6.257a1.717,1.717,0,0,0,.255,1.021.886.886,0,0,0,.765.349q1.289,0,3.008-2.739a45.324,45.324,0,0,0,2.39-4.431,23.408,23.408,0,0,1,1.37-2.524A3.916,3.916,0,0,1-29.152-15.361Zm7.6,4.324a38.508,38.508,0,0,1,3.975-3.706q2.6-2.014,3.491-2.014a1.031,1.031,0,0,1,.752.322.9.9,0,0,1,.3.645,3.455,3.455,0,0,1-.94,1.665,15.021,15.021,0,0,0-2.014,3.115q6.284-6.311,8.594-6.311a1.247,1.247,0,0,1,.833.3,1.018,1.018,0,0,1,.376.806,3.245,3.245,0,0,1-1.155,1.934q-5.076,5.237-5.076,8.594a3.116,3.116,0,0,0,.483,1.96l.7.886a.9.9,0,0,1,.215.618,1.168,1.168,0,0,1-.349.806,1.224,1.224,0,0,1-.913.43,2.063,2.063,0,0,1-1.638-1.128,5.5,5.5,0,0,1-.913-3.169,10.068,10.068,0,0,1,1.4-4.941A20.057,20.057,0,0,1-11.83-12.6a25.922,25.922,0,0,0-4.646,4.727,27.589,27.589,0,0,0-2.9,4.565q-.618,1.208-1.45,1.208-.913,0-.913-1.021a15.3,15.3,0,0,1,1.5-4.539,41.457,41.457,0,0,1,2.122-4.136,21.451,21.451,0,0,0-6.9,9.614q-.564,1.343-1.5,1.343a.866.866,0,0,1-.7-.322,1.112,1.112,0,0,1-.3-.779q0-1.584,1.772-5.72a47.183,47.183,0,0,1,4.189-7.869q1.611-2.444,2.5-2.444.806,0,.806.859a5.729,5.729,0,0,1-.994,1.88A32.97,32.97,0,0,0-21.552-11.038ZM1.088-16.355q1.1-.7,1.638-.967a4.882,4.882,0,0,1,2.148-.537,2.214,2.214,0,0,1,1.772.685,3.075,3.075,0,0,1,.591,2.054,10.484,10.484,0,0,1-1.316,4.512A19.371,19.371,0,0,1,.98-4.055,7.421,7.421,0,0,1-3.612-2.041a3.752,3.752,0,0,1-2.336-.913,164.47,164.47,0,0,0-6.58,15.173q-.618,1.853-1.45,1.853a1.083,1.083,0,0,1-.806-.537,1.316,1.316,0,0,1-.3-.833q0-1.45,3.545-9.426A188.646,188.646,0,0,1-1.141-17.161q1.021-1.719,1.37-2.363.94-1.746,1.826-1.746.913,0,.913,1.1A3.521,3.521,0,0,1,2.323-18.5Q1.544-17.161,1.088-16.355ZM-4.955-5.21a1.959,1.959,0,0,0,1.477.618q2.5,0,5.532-4.431a16.517,16.517,0,0,0,1.8-3.357,6.328,6.328,0,0,0,.537-2.068,1.021,1.021,0,0,0-.228-.725.937.937,0,0,0-.712-.242q-1.262,0-3.088,1.746A18.782,18.782,0,0,0-2.994-8.916Q-4.471-6.1-4.955-5.21ZM15.751-6.526a20.312,20.312,0,0,1-1.746,2.632Q12.313-1.8,10.648-1.8a2.5,2.5,0,0,1-2.256-1.37,4.127,4.127,0,0,1-.51-2.095,14.408,14.408,0,0,1,1.88-6.58,17.382,17.382,0,0,1,5.049-6.15,6.421,6.421,0,0,1,3.733-1.4,2.656,2.656,0,0,1,1.88.7,1.891,1.891,0,0,1,.645,1.4,4.476,4.476,0,0,1-.457,1.638,1.793,1.793,0,0,1,.4.994,4.505,4.505,0,0,1-.752,1.853A20.694,20.694,0,0,0,18.7-9.319a11.629,11.629,0,0,0-.833,3.706,2.62,2.62,0,0,0,.671,1.853,5.068,5.068,0,0,0,1.1.618,1.148,1.148,0,0,1,.671,1.128,1.046,1.046,0,0,1-.376.833A1.391,1.391,0,0,1,19-.833a3.131,3.131,0,0,1-2.5-1.289,4.012,4.012,0,0,1-.859-2.632Q15.643-5.291,15.751-6.526Zm3.357-8.835a2.667,2.667,0,0,0-.7-.873,1.318,1.318,0,0,0-.806-.282q-2.041,0-4.431,3.572Q10.541-9,10.541-6.257A1.717,1.717,0,0,0,10.8-5.237a.886.886,0,0,0,.765.349q1.289,0,3.008-2.739a45.323,45.323,0,0,0,2.39-4.431,23.408,23.408,0,0,1,1.37-2.524A3.916,3.916,0,0,1,19.108-15.361Zm10.017-2.82a.942.942,0,0,1,.752.349,1,1,0,0,1,.215.591,3.615,3.615,0,0,1-.779,1.611,49.54,49.54,0,0,0-3.975,7.117A59.865,59.865,0,0,0,23.109-2.6q-.43,1.343-1.343,1.343a1.021,1.021,0,0,1-.859-.43,1.143,1.143,0,0,1-.3-.752A28.171,28.171,0,0,1,22.33-7.815a37.237,37.237,0,0,1,4.351-7.949,14.864,14.864,0,0,1,1.45-1.907A1.386,1.386,0,0,1,29.125-18.181Zm5.1-9.963a1.08,1.08,0,0,1,1.208,1.235,4.013,4.013,0,0,1-1.182,2.5A3.057,3.057,0,0,1,32.079-23.1a1.046,1.046,0,0,1-.833-.376,1.22,1.22,0,0,1-.322-.859,4.1,4.1,0,0,1,1.423-2.739A2.868,2.868,0,0,1,34.227-28.145ZM37.369-4.4a23.062,23.062,0,0,0,4.27-3.813,28.531,28.531,0,0,0,2.927-4.055q.43-.7.886-.7.645,0,.645.618a5.813,5.813,0,0,1-1.021,2.417,27.649,27.649,0,0,1-9.507,9,94.265,94.265,0,0,1-4.351,8.379q-3.706,5.8-6.982,5.8A2.611,2.611,0,0,1,21.766,11.9a3.608,3.608,0,0,1-.43-1.772q0-4.216,5.425-8.083.859-.645,6.956-4.028,1.182-2.5,1.826-3.921-2.82,2.954-4.673,2.954a1.982,1.982,0,0,1-1.8-1.182,3.465,3.465,0,0,1-.4-1.611,11.476,11.476,0,0,1,1.584-4.968,21.168,21.168,0,0,1,5.425-6.929,7.98,7.98,0,0,1,4.7-2.122,2.414,2.414,0,0,1,1.8.779,2.039,2.039,0,0,1,.51,1.5,7.727,7.727,0,0,1-.833,3.062q.618.591.618.886A1.044,1.044,0,0,1,42.2-13q-.725.994-2.336,3.733A43.031,43.031,0,0,0,37.369-4.4Zm-.188-6.2q-.376-.4-.376-.564,0-.242.4-.618a12.91,12.91,0,0,0,2.175-2.686,3.714,3.714,0,0,0,.671-1.719q0-.725-.671-.725-1.155,0-3.3,2.2a19.6,19.6,0,0,0-3.975,5.828,6.89,6.89,0,0,0-.7,2.471,1.063,1.063,0,0,0,.215.725.783.783,0,0,0,.618.242q.94,0,2.632-1.934A20.413,20.413,0,0,0,36.7-9.8,4.566,4.566,0,0,0,37.181-10.608ZM32.106,1.128a17.366,17.366,0,0,0-6.257,4.565,8.791,8.791,0,0,0-1.8,3.008,2.651,2.651,0,0,0-.161.806,1.177,1.177,0,0,0,.161.618.926.926,0,0,0,.833.483q1.665,0,3.894-3.572Q30.709,3.948,32.106,1.128ZM51.093-11.306q.349-.322.671-.645,5.613-5.479,7.52-5.479,1.047,0,1.047,1.155a3.184,3.184,0,0,1-.94,1.907Q54.261-8.379,54.261-3.813a5.4,5.4,0,0,0,.806,2.82,2.086,2.086,0,0,1,.376.967.845.845,0,0,1-.322.618,1.1,1.1,0,0,1-.833.376,2.172,2.172,0,0,1-1.853-1.4,6.536,6.536,0,0,1-.725-3.2,15.531,15.531,0,0,1,2.739-8.03Q50.8-9.319,47.655-3.384,46.849-1.96,45.936-1.96a.975.975,0,0,1-.752-.322,1.309,1.309,0,0,1-.376-.967q0-1.45,3.3-7.6,1.772-3.33,2.793-4.834,1.021-1.477,1.746-1.477a.95.95,0,0,1,.671.322,1.183,1.183,0,0,1,.376.859,3.42,3.42,0,0,1-.779,1.692A28.705,28.705,0,0,0,51.093-11.306Z" transform="translate(210 1090)" fill="#333"/></g></svg>