<svg xmlns="http://www.w3.org/2000/svg" width="79.089" height="38.242" viewBox="0 0 79.089 38.242"><g transform="translate(-161.65 -1052.214)"><path d="M-22.975-6.069a95.769,95.769,0,0,1,5.264-12.649q2.39-4.7,6.418-11.79a48.293,48.293,0,0,1,3.921-6.257,2.67,2.67,0,0,1,1.934-1.021q.859,0,.859.752a2.253,2.253,0,0,1-.376,1.047q-.349.618-2.229,3.625a143.774,143.774,0,0,0-9.05,16.6q-2.578,5.828-4.431,11.414A9.365,9.365,0,0,1-22.142-1.37a3.226,3.226,0,0,1-2.39,1.45q-1.1,0-1.4-1.584a14.605,14.605,0,0,1-.134-2.471A90.425,90.425,0,0,1-24.8-18.235a108.9,108.9,0,0,1,2.283-11.038q-2.578,2.847-7.708,11.924A74.21,74.21,0,0,0-36.3-3.921,20.082,20.082,0,0,1-37.5-.725,2.059,2.059,0,0,1-39.3.457a.991.991,0,0,1-.779-.376,1.009,1.009,0,0,1-.269-.645,22.951,22.951,0,0,1,1.746-5.4,110,110,0,0,1,7.493-14.556Q-28-25.808-23.7-31.77a22.777,22.777,0,0,1,3.035-3.679,2.776,2.776,0,0,1,1.719-.752.961.961,0,0,1,.618.215.892.892,0,0,1,.376.725,3.3,3.3,0,0,1-.269,1.208A70.6,70.6,0,0,0-20.88-24.9,73.237,73.237,0,0,0-23.055-8.862Q-23.055-7.949-22.975-6.069ZM-10.7-7.251v.483a1.757,1.757,0,0,0,.3,1.021,2.463,2.463,0,0,0,2.2.994q3.357,0,7.761-5.156Q.336-10.8.873-10.8a.692.692,0,0,1,.537.3.685.685,0,0,1,.161.4q0,1.047-2.578,3.545a19.406,19.406,0,0,1-4.3,3.2A9,9,0,0,1-9.547-2.122a3.891,3.891,0,0,1-3.169-1.4,4.079,4.079,0,0,1-.779-2.632q0-4.539,4.27-8.889,3.464-3.545,6.042-3.545a2.031,2.031,0,0,1,1.262.43,1.808,1.808,0,0,1,.7,1.477,6.921,6.921,0,0,1-1.316,3.491A14,14,0,0,1-10.7-7.251Zm.591-2.095A10.794,10.794,0,0,0-7.157-10.8a11.927,11.927,0,0,0,2.981-3.276,2.243,2.243,0,0,0,.4-1.155q0-.537-.51-.537a3.769,3.769,0,0,0-1.987,1.047A13.746,13.746,0,0,0-10.111-9.346Zm21.753-.242q-2.31,3.115-3.411,4.3A21.483,21.483,0,0,1,5.868-3.035,3.612,3.612,0,0,1,3.773-2.2a1.586,1.586,0,0,1-1.45-.94,3.261,3.261,0,0,1-.4-1.611q0-2.927,3.491-8.057,3.169-4.646,4.7-4.646a1.028,1.028,0,0,1,.725.349,1.031,1.031,0,0,1,.322.752q0,.591-1.047,1.638A24.49,24.49,0,0,0,6.244-9.749a8.809,8.809,0,0,0-1.4,3.088q0,.537.483.537,1.611,0,6.982-6.982,1.746-2.256,2.122-2.6a2.1,2.1,0,0,1,1.423-.645,1.325,1.325,0,0,1,.833.269.768.768,0,0,1,.3.564A13.7,13.7,0,0,1,15.7-12.81Q12.77-7.654,12.77-5.854q0,.7.564.7.967,0,2.659-2.229A24.344,24.344,0,0,0,18.973-12.7a19.5,19.5,0,0,0,1.047-3.679q.537-2.6,2.148-2.6.913,0,.913,1.021,0,3.518-3.921,9.668Q15.079-1.88,12.286-1.88q-2.068,0-2.068-2.551A12.784,12.784,0,0,1,11.642-9.587ZM35.409-19.927a4.321,4.321,0,0,1,2.5.591,2.058,2.058,0,0,1,.833,1.8,4.851,4.851,0,0,1-1.182,3.062,7.8,7.8,0,0,1-3.384,2.256,6.208,6.208,0,0,1-2.068.457q-1.128,0-1.128-.994a1.1,1.1,0,0,1,.645-1.021q.161-.081,1.826-.457a4.063,4.063,0,0,0,1.826-.94A1.766,1.766,0,0,0,36-16.516a1.023,1.023,0,0,0-.322-.833,1.483,1.483,0,0,0-.967-.269,6.318,6.318,0,0,0-3.437,1.262A4.054,4.054,0,0,0,29.1-12.971,6.713,6.713,0,0,0,30.521-9.48a7.264,7.264,0,0,1,1.584,3.867,4.186,4.186,0,0,1-2.095,3.706,5.277,5.277,0,0,1-2.927.833,4.538,4.538,0,0,1-3.921-1.853,5.219,5.219,0,0,1-.94-3.115A5.672,5.672,0,0,1,23.3-9.561a1.9,1.9,0,0,1,1.45-.94q.671,0,.671.537a1.523,1.523,0,0,1-.242.645,5.669,5.669,0,0,0-.618,2.712,2.989,2.989,0,0,0,.94,2.229,2.665,2.665,0,0,0,1.907.806,2.03,2.03,0,0,0,1.638-.7,2.3,2.3,0,0,0,.483-1.5A5.57,5.57,0,0,0,28.239-8.7a7.945,7.945,0,0,1-1.772-4.485q0-2.686,2.927-4.753A10.337,10.337,0,0,1,35.409-19.927Z" transform="translate(202 1090)" fill="#333"/></g></svg>