<svg xmlns="http://www.w3.org/2000/svg" width="394.395" height="79.277" viewBox="0 0 394.395 79.277"><path d="M40.078-71.25A95.021,95.021,0,0,0,31.992-60q-5.1,7.969-7.324,12.3,12.656-2.52,17.52-2.52a10.516,10.516,0,0,1,3.574.469,2.033,2.033,0,0,1,1.406,2.168q0,3.633-4.1,3.633h-.937Q40.371-44,39.551-44q-5.8,0-19.277,3.809A176.32,176.32,0,0,0,5.215-5.039Q4.336-1.934,2.461-1.934A3.219,3.219,0,0,1-.293-3.75a4.9,4.9,0,0,1-.879-2.7q0-1.523,3.223-10.312A188.27,188.27,0,0,1,17.285-47.812q6.27-10.371,13.77-21.973a2.053,2.053,0,0,1-1.992-2.227q0-2.871,5.566-4.395a134.678,134.678,0,0,1,15.059-3.34,86.041,86.041,0,0,1,12.656-1.348q6.855,0,6.855,3.457a3.376,3.376,0,0,1-1.582,2.871,2.428,2.428,0,0,1-1.465.469,15.833,15.833,0,0,1-1.992-.176,24.206,24.206,0,0,0-3.457-.293,76.123,76.123,0,0,0-10.664,1.23A64.376,64.376,0,0,0,40.078-71.25Zm14.414,47.4A114.386,114.386,0,0,1,67.734-35.859a55,55,0,0,1,5.742-3.926,6,6,0,0,1,1.934-.879q.879,0,1.758,1.289a2.216,2.216,0,0,1,.527,1.289q0,1.055-2.227,2.871-5.977,4.746-5.977,7.148,0,1.348,1.523,1.348,2.52,0,8.672-4.16a3.417,3.417,0,0,1,1.758-.7,1.351,1.351,0,0,1,.938.469A1.568,1.568,0,0,1,82.91-30q0,1.758-4.922,5.391-5.156,3.867-9.785,3.867a6.363,6.363,0,0,1-3.457-1,3.147,3.147,0,0,1-1.348-2.93,6.3,6.3,0,0,1,1.23-3.34Q60-24.727,53.73-16.758A81.5,81.5,0,0,0,46.523-4.629q-1.348,2.7-3.34,2.7-2.168,0-2.168-2.051,0-1.992,3.4-10.664,5.039-12.891,10.547-19.98,3.4-4.395,5.684-4.395a2.34,2.34,0,0,1,1.406.469,1.781,1.781,0,0,1,.762,1.465,4.8,4.8,0,0,1-1.172,2.461q-.234.293-3.105,3.926A30.819,30.819,0,0,0,54.492-23.848ZM85.078-15.82v1.055a3.833,3.833,0,0,0,.645,2.227,5.374,5.374,0,0,0,4.8,2.168q7.324,0,16.934-11.25,1.7-1.934,2.871-1.934a1.51,1.51,0,0,1,1.172.645,1.5,1.5,0,0,1,.352.879q0,2.285-5.625,7.734a42.341,42.341,0,0,1-9.375,6.973,19.635,19.635,0,0,1-9.258,2.7,8.489,8.489,0,0,1-6.914-3.047,8.9,8.9,0,0,1-1.7-5.742q0-9.9,9.316-19.395,7.559-7.734,13.184-7.734a4.432,4.432,0,0,1,2.754.938,3.944,3.944,0,0,1,1.523,3.223q0,3.105-2.871,7.617Q96.973-19.395,85.078-15.82Zm1.289-4.57a23.551,23.551,0,0,0,6.445-3.164,26.024,26.024,0,0,0,6.5-7.148,4.894,4.894,0,0,0,.879-2.52q0-1.172-1.113-1.172-1.523,0-4.336,2.285A29.991,29.991,0,0,0,86.367-20.391Zm53.965-23.086a9.428,9.428,0,0,1,5.449,1.289,4.491,4.491,0,0,1,1.816,3.926,10.583,10.583,0,0,1-2.578,6.68,17.014,17.014,0,0,1-7.383,4.922,13.546,13.546,0,0,1-4.512,1q-2.461,0-2.461-2.168a2.41,2.41,0,0,1,1.406-2.227q.352-.176,3.984-1a8.865,8.865,0,0,0,3.984-2.051,3.853,3.853,0,0,0,1.582-2.93,2.231,2.231,0,0,0-.7-1.816,3.235,3.235,0,0,0-2.109-.586,13.784,13.784,0,0,0-7.5,2.754q-4.746,3.105-4.746,7.383,0,3.047,3.105,7.617,3.457,4.98,3.457,8.438a9.133,9.133,0,0,1-4.57,8.086,11.514,11.514,0,0,1-6.387,1.816,9.9,9.9,0,0,1-8.555-4.043,11.386,11.386,0,0,1-2.051-6.8,12.376,12.376,0,0,1,2.344-7.676q1.523-2.051,3.164-2.051,1.465,0,1.465,1.172a3.323,3.323,0,0,1-.527,1.406,12.369,12.369,0,0,0-1.348,5.918,6.522,6.522,0,0,0,2.051,4.863,5.815,5.815,0,0,0,4.16,1.758,4.43,4.43,0,0,0,3.574-1.523A5.012,5.012,0,0,0,127.5-12.6q0-2.461-2.812-6.387-3.867-5.391-3.867-9.785,0-5.859,6.387-10.371A22.553,22.553,0,0,1,140.332-43.477ZM158.2-28.535a59.954,59.954,0,0,1,8.672-7.559q5.566-3.867,7.969-3.867a2.922,2.922,0,0,1,1.934.82,2.83,2.83,0,0,1,1.055,2.168q0,1.582-2.52,4.922a70.322,70.322,0,0,0-7.383,11.719q-2.227,4.57-2.227,6.211,0,1.582,1.523,1.582,3.164,0,10.664-11.25,1.523-2.285,2.754-2.285t1.23,1.406q0,2.285-4.453,8.73a33.949,33.949,0,0,1-8.086,8.613,9.835,9.835,0,0,1-5.391,2.051,3.788,3.788,0,0,1-3.633-2.168,6.361,6.361,0,0,1-.7-2.988q0-5.215,3.691-11.895.879-1.582,5.273-9.023-11.953,6.035-20.215,26.074-.762,2.285-2.344,2.285A2.359,2.359,0,0,1,144.2-3.75a2.957,2.957,0,0,1-.7-1.992q0-1.934,3.75-10.957,6.973-16.758,13.008-28.359,6.035-11.719,13.418-24.316a24.46,24.46,0,0,1,2.754-4.1,2.9,2.9,0,0,1,2.109-1.055,2.186,2.186,0,0,1,1.816,1.113,3.145,3.145,0,0,1,.586,1.875q0,1.641-1.875,4.395-6.328,9.785-12.6,21.5Q159.727-33.105,158.2-28.535Zm70.078-6.8q4.98-4.219,8.965-4.219a4.892,4.892,0,0,1,4.043,2.051,6.524,6.524,0,0,1,1.465,4.219q0,4.57-2.988,11.074A45.822,45.822,0,0,1,230.1-8.789q-5.215,5.156-9.961,5.156a7.71,7.71,0,0,1-3.193-.645,7.311,7.311,0,0,1-2.549-1.934q-.469.82-.586,1.055a16.714,16.714,0,0,1-1.377,2.637,1.458,1.458,0,0,1-1.2.469,2.582,2.582,0,0,1-1.992-1.23,2.794,2.794,0,0,1-.645-1.758q0-1.641,6.738-16.582a399.584,399.584,0,0,1,21.855-41.484q5.039-8.437,6.152-9.9,1.23-1.758,2.285-1.758a2.863,2.863,0,0,1,2.285,1.289,3.037,3.037,0,0,1,.645,1.934,6.516,6.516,0,0,1-1.113,3.105q-.234.41-3.691,6.035Q233.145-46,228.281-35.332Zm-11.66,23.613a7.181,7.181,0,0,0,1.787,1.758,3.459,3.459,0,0,0,1.9.586q5.1,0,10.781-8.848a41.765,41.765,0,0,0,4.16-7.91,16.528,16.528,0,0,0,1.348-5.215,2.441,2.441,0,0,0-.527-1.729,2.165,2.165,0,0,0-1.641-.557q-2.7,0-6.5,3.691a42.037,42.037,0,0,0-7.5,10.488q-1.758,3.281-3.047,6.152Zm38.906-12.129A114.386,114.386,0,0,1,268.77-35.859a55,55,0,0,1,5.742-3.926,6,6,0,0,1,1.934-.879q.879,0,1.758,1.289a2.216,2.216,0,0,1,.527,1.289q0,1.055-2.227,2.871-5.977,4.746-5.977,7.148,0,1.348,1.523,1.348,2.52,0,8.672-4.16a3.417,3.417,0,0,1,1.758-.7,1.351,1.351,0,0,1,.938.469A1.568,1.568,0,0,1,283.945-30q0,1.758-4.922,5.391-5.156,3.867-9.785,3.867a6.363,6.363,0,0,1-3.457-1,3.147,3.147,0,0,1-1.348-2.93,6.3,6.3,0,0,1,1.23-3.34q-4.629,3.281-10.9,11.25a81.5,81.5,0,0,0-7.207,12.129q-1.348,2.7-3.34,2.7-2.168,0-2.168-2.051,0-1.992,3.4-10.664Q250.488-27.539,256-34.629q3.4-4.395,5.684-4.395a2.34,2.34,0,0,1,1.406.469,1.781,1.781,0,0,1,.762,1.465,4.8,4.8,0,0,1-1.172,2.461q-.234.293-3.105,3.926A30.819,30.819,0,0,0,255.527-23.848Zm30.586,8.027v1.055a3.833,3.833,0,0,0,.645,2.227,5.374,5.374,0,0,0,4.8,2.168q7.324,0,16.934-11.25,1.7-1.934,2.871-1.934a1.51,1.51,0,0,1,1.172.645,1.5,1.5,0,0,1,.352.879q0,2.285-5.625,7.734a42.341,42.341,0,0,1-9.375,6.973,19.635,19.635,0,0,1-9.258,2.7,8.489,8.489,0,0,1-6.914-3.047,8.9,8.9,0,0,1-1.7-5.742q0-9.9,9.316-19.395,7.559-7.734,13.184-7.734a4.432,4.432,0,0,1,2.754.938,3.944,3.944,0,0,1,1.523,3.223q0,3.105-2.871,7.617Q298.008-19.395,286.113-15.82Zm1.289-4.57a23.551,23.551,0,0,0,6.445-3.164,26.024,26.024,0,0,0,6.5-7.148,4.894,4.894,0,0,0,.879-2.52q0-1.172-1.113-1.172-1.523,0-4.336,2.285A29.991,29.991,0,0,0,287.4-20.391Zm44.3,6.152A44.317,44.317,0,0,1,327.891-8.5q-3.691,4.57-7.324,4.57a5.454,5.454,0,0,1-4.922-2.988,9,9,0,0,1-1.113-4.57q0-6.5,4.1-14.355a37.925,37.925,0,0,1,11.016-13.418,14.009,14.009,0,0,1,8.145-3.047,5.8,5.8,0,0,1,4.1,1.523,4.126,4.126,0,0,1,1.406,3.047,9.765,9.765,0,0,1-1,3.574,3.911,3.911,0,0,1,.879,2.168,9.83,9.83,0,0,1-1.641,4.043,45.151,45.151,0,0,0-3.4,7.617,25.372,25.372,0,0,0-1.816,8.086A5.717,5.717,0,0,0,337.793-8.2a11.058,11.058,0,0,0,2.4,1.348,2.5,2.5,0,0,1,1.465,2.461,2.282,2.282,0,0,1-.82,1.816,3.034,3.034,0,0,1-2.051.762,6.831,6.831,0,0,1-5.449-2.812,8.754,8.754,0,0,1-1.875-5.742Q331.465-11.543,331.7-14.238Zm7.324-19.277a5.818,5.818,0,0,0-1.523-1.9,2.876,2.876,0,0,0-1.758-.615q-4.453,0-9.668,7.793-5.742,8.613-5.742,14.59a3.745,3.745,0,0,0,.557,2.227,1.934,1.934,0,0,0,1.67.762q2.813,0,6.563-5.977a98.887,98.887,0,0,0,5.215-9.668,51.072,51.072,0,0,1,2.988-5.508A8.545,8.545,0,0,1,339.023-33.516Zm30.117-5.273Q375-51.035,380.215-60.117a114.685,114.685,0,0,1,6.855-11.074q1.992-2.52,3.75-2.52a2.353,2.353,0,0,1,1.7.762,2.382,2.382,0,0,1,.7,1.641q0,1.348-1.992,4.512-8.5,13.711-15.586,27.832-8.2,16.465-8.2,24.668a9.4,9.4,0,0,0,1.289,5.273,11.71,11.71,0,0,0,2.109,1.875,1.5,1.5,0,0,1,.352,1.172,3.058,3.058,0,0,1-.908,2.139,2.727,2.727,0,0,1-2.021.967,4.544,4.544,0,0,1-2.988-1.641A9.545,9.545,0,0,1,362.461-9.9q-.176-1.289-.41-4.8Q355.9-3.633,350.332-3.633q-3.223,0-5.156-3.633a11.342,11.342,0,0,1-1.289-5.449q0-9.141,6.68-18.4,6.621-9.141,14.238-9.141A7.9,7.9,0,0,1,369.141-38.789Zm-1.992,4.8a5.209,5.209,0,0,0-2.754-1.055q-4.922,0-9.316,6.035-5.8,7.852-5.8,15.176a3.867,3.867,0,0,0,.352,1.641,2.252,2.252,0,0,0,2.109,1.465q2.051,0,4.98-3.984a70.52,70.52,0,0,0,7.266-12.48q1.172-2.461,2.285-4.922l.527-1.113Z" transform="translate(1.172 81.094)" fill="#333"/></svg>