<svg xmlns="http://www.w3.org/2000/svg" width="357.891" height="111.27" viewBox="0 0 357.891 111.27"><path d="M8.906-27.187q3.164,0,3.164,2.578,0,1.934-2.93,2.93Q4.1-19.863,4.1-15.176a6.816,6.816,0,0,0,2.93,5.859,10.906,10.906,0,0,0,6.387,1.758A21.414,21.414,0,0,0,26.953-12.07a8.883,8.883,0,0,0,3.633-7.266A10.971,10.971,0,0,0,29.531-24.2a53.627,53.627,0,0,0-3.4-5.625q-3.516-5.273-5.918-9.609a19.2,19.2,0,0,1-2.7-9.434q0-10.957,10.84-20.508a51.286,51.286,0,0,1,12.656-8.086A27.509,27.509,0,0,1,52.09-79.98a9.434,9.434,0,0,1,5.859,1.816,6.968,6.968,0,0,1,2.93,5.918q0,5.859-6.328,12.656A49.771,49.771,0,0,1,40.605-49.16q-3.984,1.992-6.035,1.992a3.231,3.231,0,0,1-2.4-1.113,2.446,2.446,0,0,1-.7-1.7q0-2.168,3.867-3.516a40.331,40.331,0,0,0,12.539-7.09Q54.9-66.445,54.9-70.84A3.286,3.286,0,0,0,53.5-73.594a4.323,4.323,0,0,0-2.637-.82q-4.043,0-10.137,3.105A34.8,34.8,0,0,0,27.832-60.586q-4.1,5.684-4.1,11.074A17.451,17.451,0,0,0,25.9-41.426q1.816,3.34,4.629,7.559,2.7,4.043,4.57,7.5a16.539,16.539,0,0,1,2.168,7.676q0,6.914-7.91,12.246A27.012,27.012,0,0,1,14.121-1.992Q5.742-1.992,1-6.621a11.029,11.029,0,0,1-3.574-8.086,11.724,11.724,0,0,1,3.4-8.555,13.115,13.115,0,0,1,4.863-3.164A9.186,9.186,0,0,1,8.906-27.187Zm49.16-1.348a59.954,59.954,0,0,1,8.672-7.559q5.566-3.867,7.969-3.867a2.922,2.922,0,0,1,1.934.82A2.83,2.83,0,0,1,77.7-36.973q0,1.582-2.52,4.922a70.322,70.322,0,0,0-7.383,11.719q-2.227,4.57-2.227,6.211,0,1.582,1.523,1.582,3.164,0,10.664-11.25,1.523-2.285,2.754-2.285t1.23,1.406q0,2.285-4.453,8.73A33.949,33.949,0,0,1,69.2-7.324a9.835,9.835,0,0,1-5.391,2.051,3.788,3.788,0,0,1-3.633-2.168,6.361,6.361,0,0,1-.7-2.988q0-5.215,3.691-11.895.879-1.582,5.273-9.023Q56.484-25.312,48.223-5.273q-.762,2.285-2.344,2.285a2.359,2.359,0,0,1-1.816-.762,2.957,2.957,0,0,1-.7-1.992q0-1.934,3.75-10.957,6.973-16.758,13.008-28.359,6.035-11.719,13.418-24.316a24.46,24.46,0,0,1,2.754-4.1A2.9,2.9,0,0,1,78.4-74.531a2.186,2.186,0,0,1,1.816,1.113,3.145,3.145,0,0,1,.586,1.875q0,1.641-1.875,4.395-6.328,9.785-12.6,21.5Q59.59-33.105,58.066-28.535Zm45.879-13.828q4.8,0,4.8,5.859,0,7.793-7.207,19.746Q93.691-3.809,86.367-3.809a5.231,5.231,0,0,1-4.98-3.164,8.184,8.184,0,0,1-.82-3.809q0-7.5,5.156-16.289A39.437,39.437,0,0,1,97.031-39.727,12.51,12.51,0,0,1,103.945-42.363ZM97.852-20.215q-1.465-1.172-1.465-1.816,0-.469,1.875-2.578,5.273-5.918,5.273-9.551a1.757,1.757,0,0,0-.293-.937,1.552,1.552,0,0,0-1.465-.879q-1.875,0-5.508,3.633a36.967,36.967,0,0,0-7.148,9.668q-2.871,5.684-2.871,9.434a3.012,3.012,0,0,0,.527,1.758,2.3,2.3,0,0,0,1.934,1.055q2.813,0,6.035-4.219a18.157,18.157,0,0,0,2.285-3.633A11.008,11.008,0,0,0,97.852-20.215Zm28.184-15.469q2.4-1.523,3.574-2.109a10.652,10.652,0,0,1,4.688-1.172,4.83,4.83,0,0,1,3.867,1.494,6.709,6.709,0,0,1,1.289,4.482q0,4.1-2.871,9.844A42.264,42.264,0,0,1,125.8-8.848q-5.332,4.395-10.02,4.395a8.186,8.186,0,0,1-5.1-1.992A358.844,358.844,0,0,0,96.328,26.66Q94.98,30.7,93.164,30.7a2.362,2.362,0,0,1-1.758-1.172,2.871,2.871,0,0,1-.645-1.816q0-3.164,7.734-20.566,11.953-26.836,22.676-44.59,2.227-3.75,2.988-5.156,2.051-3.809,3.984-3.809,1.992,0,1.992,2.4a7.682,7.682,0,0,1-1.406,3.633Q127.031-37.441,126.035-35.684ZM112.852-11.367a4.275,4.275,0,0,0,3.223,1.348q5.449,0,12.07-9.668a36.037,36.037,0,0,0,3.926-7.324,13.808,13.808,0,0,0,1.172-4.512,2.228,2.228,0,0,0-.5-1.582,2.045,2.045,0,0,0-1.553-.527q-2.754,0-6.738,3.809a40.978,40.978,0,0,0-7.324,10.371Q113.906-13.3,112.852-11.367Zm99.375-25.547A128.519,128.519,0,0,0,189.961-30.7q-5.391,7.91-11.836,18.984L175.02-6.27Q174.2-4.8,172.5-2.051q-1.875,3.223-3.926,3.223A2.387,2.387,0,0,1,166.7.293a2.353,2.353,0,0,1-.762-1.7q0-1.641,4.395-9.316,2.4-4.16,7.266-11.777,1.875-2.93,2.988-4.8a49.55,49.55,0,0,0-6.445,2.285,5.909,5.909,0,0,1-2.344.645,2.021,2.021,0,0,1-1.816-1.055,2.52,2.52,0,0,1-.469-1.523,2.987,2.987,0,0,1,1.406-2.812,39.511,39.511,0,0,1,8.2-3.223,66.461,66.461,0,0,0,6.973-2.578q1.23-1.523,6.445-8.965,2.227-3.223,12.656-15.234a213.623,213.623,0,0,1,15.469-16.348q4.629-4.453,7.09-4.453a3.445,3.445,0,0,1,2.637,1.23,3.732,3.732,0,0,1,.938,2.461,18.808,18.808,0,0,1-1.641,5.742q-2.812,7.207-5.391,15.41-2.227,7.266-2.988,11.133a10.594,10.594,0,0,0,1.406-.059q1.7-.059,2.813-.059,3.4,0,3.4,2.578a3.89,3.89,0,0,1-.732,2.2,2.93,2.93,0,0,1-1.67,1.318,8.858,8.858,0,0,1-1.934.117,22.22,22.22,0,0,0-4.98.41q-1.406,4.16-4.453,21.27-1.582,11.367-1.523,13.945,0,4.219-2.52,4.219A3.421,3.421,0,0,1,208.008-.7a7.552,7.552,0,0,1-.82-3.809q0-8.086,2.871-21.8Q211.523-33.223,212.227-36.914Zm1.641-6.328q.527-1.7,2.7-9.082.527-1.934,2.7-7.676,2.168-5.918,3.457-9.492a44.823,44.823,0,0,0-7.734,6.68Q201.152-47.93,195.469-38.5q2.168-.527,9.316-2.637Q206.836-41.719,213.867-43.242ZM241-35.332q4.98-4.219,8.965-4.219A4.892,4.892,0,0,1,254-37.5a6.524,6.524,0,0,1,1.465,4.219q0,4.57-2.988,11.074a45.822,45.822,0,0,1-9.668,13.418q-5.215,5.156-9.961,5.156a7.71,7.71,0,0,1-3.193-.645,7.311,7.311,0,0,1-2.549-1.934q-.469.82-.586,1.055a16.714,16.714,0,0,1-1.377,2.637,1.458,1.458,0,0,1-1.2.469,2.582,2.582,0,0,1-1.992-1.23,2.794,2.794,0,0,1-.645-1.758q0-1.641,6.738-16.582A399.584,399.584,0,0,1,249.9-63.105q5.039-8.437,6.152-9.9,1.23-1.758,2.285-1.758a2.863,2.863,0,0,1,2.285,1.289,3.037,3.037,0,0,1,.645,1.934,6.516,6.516,0,0,1-1.113,3.105q-.234.41-3.691,6.035Q245.859-46,241-35.332Zm-11.66,23.613a7.181,7.181,0,0,0,1.787,1.758,3.459,3.459,0,0,0,1.9.586q5.1,0,10.781-8.848a41.765,41.765,0,0,0,4.16-7.91,16.528,16.528,0,0,0,1.348-5.215,2.441,2.441,0,0,0-.527-1.729,2.165,2.165,0,0,0-1.641-.557q-2.7,0-6.5,3.691a42.037,42.037,0,0,0-7.5,10.488q-1.758,3.281-3.047,6.152ZM280.2-42.363q4.8,0,4.8,5.859,0,7.793-7.207,19.746Q269.941-3.809,262.617-3.809a5.231,5.231,0,0,1-4.98-3.164,8.184,8.184,0,0,1-.82-3.809q0-7.5,5.156-16.289a39.437,39.437,0,0,1,11.309-12.656A12.51,12.51,0,0,1,280.2-42.363ZM274.1-20.215q-1.465-1.172-1.465-1.816,0-.469,1.875-2.578,5.273-5.918,5.273-9.551a1.757,1.757,0,0,0-.293-.937,1.552,1.552,0,0,0-1.465-.879q-1.875,0-5.508,3.633a36.967,36.967,0,0,0-7.148,9.668q-2.871,5.684-2.871,9.434a3.012,3.012,0,0,0,.527,1.758,2.3,2.3,0,0,0,1.934,1.055q2.813,0,6.035-4.219a18.157,18.157,0,0,0,2.285-3.633A11.008,11.008,0,0,0,274.1-20.215Zm27.656,6.68A61.647,61.647,0,0,1,297.3-7.91q-3.4,3.75-6.738,3.75a4.96,4.96,0,0,1-4.453-2.578A8.137,8.137,0,0,1,285-11.074q0-7.559,6.445-17.344a30.7,30.7,0,0,1,5.918-6.973q2.285-1.934,3.75-1.934a2.127,2.127,0,0,1,1.523.7,1.933,1.933,0,0,1,.586,1.289q0,1.113-2.168,3.633a60.146,60.146,0,0,0-7.383,10.664q-2.93,5.684-2.93,8.906a1.867,1.867,0,0,0,.381,1.26,1.357,1.357,0,0,0,1.084.439q2.988,0,8.32-8.555a54.724,54.724,0,0,0,4.746-9.844,20.065,20.065,0,0,1,2.754-5.215q1.641-2.051,3.223-2.051a2.112,2.112,0,0,1,1.582.762,2.611,2.611,0,0,1,.762,1.816q0,2.109-4.043,9.492-2.754,5.1-2.754,8.5a10.056,10.056,0,0,0,1.934,6.211,12.709,12.709,0,0,0,3.223,2.227,2.641,2.641,0,0,1,1.289,2.461,2.3,2.3,0,0,1-.908,1.816,3.306,3.306,0,0,1-2.2.762A7.478,7.478,0,0,1,304.8-4.395a10.317,10.317,0,0,1-2.754-6.094Q301.934-11.016,301.758-13.535Zm36.27-28.77A95.543,95.543,0,0,0,331-29.062q-4.629,10.43-4.629,15.586a3.477,3.477,0,0,0,.615,2.227,2.231,2.231,0,0,0,1.846.762q2.93,0,7.09-5.508a70.7,70.7,0,0,0,4.688-6.8q1.113-1.934,2.4-1.934a1.753,1.753,0,0,1,1.289.527,1.6,1.6,0,0,1,.469,1.055q0,2.168-5.684,9.668-6.8,9.023-12.422,9.023a5.953,5.953,0,0,1-4.98-2.754,8.608,8.608,0,0,1-1.23-4.98q0-7.09,4.1-16.523,1-2.344,5.508-11.309a10.488,10.488,0,0,1-2.4.41,4,4,0,0,1-2.168-.586,2.394,2.394,0,0,1-1.289-2.051,2.635,2.635,0,0,1,1.7-2.344,27.59,27.59,0,0,1,4.336-.762,30.92,30.92,0,0,0,4.1-1.113,103.912,103.912,0,0,1,6.68-10.02q2.578-3.516,3.574-4.57a3.817,3.817,0,0,1,2.461-1.465,2.139,2.139,0,0,1,1.523.82,2.269,2.269,0,0,1,.7,1.523q0,1.523-3.281,6.035a54.688,54.688,0,0,0-3.223,4.746,41.362,41.362,0,0,1,9.316-1.758q3.223,0,3.223,2.7a2.145,2.145,0,0,1-1.113,1.992,9.447,9.447,0,0,1-3.047.586q-1-.059-8.848,2.227Q340.137-43.008,338.027-42.3Z" transform="translate(2.578 80.566)" fill="#fff"/></svg>